<?xml version="1.0" standalone="no"?>
<!DOCTYPE svg PUBLIC "-//W3C//DTD SVG 20010904//EN"
 "http://www.w3.org/TR/2001/REC-SVG-20010904/DTD/svg10.dtd">
<svg version="1.0" xmlns="http://www.w3.org/2000/svg"
 width="1024.000000pt" height="717.000000pt" viewBox="0 0 1024.000000 717.000000"
 preserveAspectRatio="xMidYMid meet">
<metadata>
Created by potrace 1.16, written by Peter Selinger 2001-2019
</metadata>
<g transform="translate(0.000000,717.000000) scale(0.100000,-0.100000)"
fill="#000000" stroke="none">
<path d="M2196 5224 c-9 -8 -16 -21 -17 -27 -1 -14 -2 -21 -24 -132 -8 -44
-17 -111 -19 -150 -3 -38 -8 -110 -13 -160 -14 -155 -5 -446 17 -580 22 -131
52 -279 72 -355 10 -41 21 -83 23 -94 8 -34 87 -260 102 -289 8 -16 19 -25 25
-21 6 4 8 3 5 -3 -8 -13 31 -155 44 -164 6 -3 12 -21 14 -40 3 -19 9 -35 14
-37 6 -2 7 -10 4 -19 -3 -8 -2 -18 3 -22 14 -9 90 -334 113 -481 11 -69 25
-183 31 -253 5 -70 15 -138 21 -150 l12 -21 10 24 c8 19 11 21 14 9 3 -13 14
-15 53 -11 35 3 50 1 50 -8 0 -8 12 -10 38 -6 20 3 43 5 50 6 7 0 11 4 8 8 -3
5 8 6 24 4 38 -5 83 6 75 18 -3 6 -2 10 4 10 5 0 11 -5 13 -11 2 -7 34 -6 103
5 55 9 129 20 165 26 106 16 385 48 530 61 74 6 155 14 180 18 l45 6 37 90
c21 50 35 96 33 103 -2 6 0 12 5 12 7 0 43 90 45 115 0 6 8 26 17 47 26 59 73
211 70 231 -1 10 2 16 7 13 5 -4 12 12 16 34 5 29 0 60 -18 117 -40 123 -73
241 -92 328 -27 122 -35 155 -39 155 -10 0 -85 -113 -80 -121 3 -5 2 -8 -3 -7
-7 3 -33 -18 -110 -89 -13 -13 -28 -23 -34 -23 -6 0 -7 -5 -3 -12 4 -7 3 -8
-4 -4 -15 9 -54 -12 -47 -24 4 -6 -1 -7 -11 -3 -13 5 -15 3 -9 -7 5 -9 4 -11
-3 -6 -6 4 -35 -4 -64 -18 -29 -13 -72 -27 -96 -31 -23 -4 -40 -10 -38 -13 2
-4 -60 -9 -137 -10 -78 -2 -146 -6 -151 -9 -5 -4 -6 -1 -3 4 4 6 -11 13 -36
16 -23 3 -69 16 -102 27 -33 12 -68 22 -77 23 -9 1 -15 4 -12 8 5 8 -57 35
-71 31 -5 -2 -7 0 -3 3 10 10 -61 57 -73 49 -5 -3 -8 -1 -7 3 4 11 -74 88 -85
85 -5 -2 -6 1 -3 6 3 5 -12 26 -32 48 -20 22 -59 72 -86 112 -27 39 -52 69
-56 67 -4 -2 -7 2 -7 9 0 7 -24 53 -54 102 -65 105 -101 180 -160 329 -24 61
-47 113 -52 116 -5 4 -7 12 -3 17 4 6 2 19 -3 29 -24 46 -80 299 -97 443 -2
19 -5 125 -7 235 -3 226 -9 252 -51 209z"/>
<path d="M4405 5140 c39 -111 52 -388 24 -527 -6 -28 -9 -58 -8 -65 2 -7 -3
-31 -9 -53 -6 -22 -26 -98 -43 -169 -18 -71 -44 -161 -58 -200 -15 -39 -26
-78 -25 -86 0 -8 2 -25 2 -38 1 -13 7 -20 12 -17 6 3 10 -3 10 -14 0 -33 92
-251 106 -251 3 0 2 5 -2 11 -3 6 -2 14 2 18 5 3 18 42 28 86 10 44 25 103 32
130 14 51 36 146 54 240 6 28 13 58 16 69 5 14 3 16 -7 10 -10 -6 -9 0 3 17
19 30 38 170 38 286 0 131 -31 333 -52 333 -5 0 -6 5 -3 10 6 10 -34 137 -58
185 -15 30 -49 65 -63 65 -10 0 -10 -8 1 -40z"/>
<path d="M3312 4372 c-28 -2 -40 -7 -36 -14 5 -7 2 -9 -8 -5 -29 11 -131 -32
-183 -77 -16 -14 -34 -26 -39 -26 -4 0 -6 -6 -3 -14 7 -17 -11 -36 -27 -30
-14 5 -49 -50 -38 -60 4 -4 3 -6 -3 -4 -5 2 -10 0 -10 -3 0 -4 -8 -16 -18 -27
-11 -12 -16 -26 -11 -33 4 -7 3 -10 -4 -5 -14 8 -35 -55 -26 -79 6 -14 4 -16
-6 -10 -10 6 -12 4 -7 -8 4 -10 1 -28 -5 -42 -16 -35 5 -184 35 -249 36 -77
91 -149 150 -194 61 -46 112 -74 121 -65 3 4 6 2 6 -4 0 -18 75 -34 178 -38
78 -3 163 17 221 51 21 13 27 20 18 26 -7 5 0 6 16 2 18 -4 27 -2 27 7 0 7 3
10 6 6 9 -9 84 64 77 76 -3 6 -2 7 4 4 22 -14 116 163 119 224 1 20 5 42 9 49
16 26 -20 235 -38 223 -6 -3 -7 -1 -3 5 8 14 -11 55 -23 48 -4 -3 -7 5 -7 17
1 12 -4 21 -11 20 -7 -2 -10 3 -8 10 3 6 -11 30 -30 52 -19 22 -35 37 -35 34
0 -4 -19 11 -42 32 -79 72 -222 111 -366 101z"/>
<path d="M4610 2313 c-298 -10 -837 -53 -1110 -89 -107 -13 -208 -26 -225 -28
-16 -2 -46 -6 -65 -9 -19 -3 -62 -8 -95 -12 -33 -3 -91 -12 -130 -20 -38 -7
-95 -16 -125 -20 -71 -8 -342 -58 -495 -90 -66 -14 -166 -35 -223 -47 -56 -11
-100 -23 -98 -26 3 -2 40 0 83 7 131 18 295 40 353 46 30 3 69 7 85 10 17 2
62 6 100 10 39 3 104 10 145 15 41 5 107 12 145 15 77 6 261 23 340 31 28 2
91 7 140 10 50 3 137 9 195 14 498 39 1620 60 2160 39 107 -4 269 -10 358 -14
128 -5 162 -3 156 6 -5 9 -2 10 10 6 10 -4 25 -7 34 -7 15 0 15 -2 2 -10 -11
-7 3 -10 45 -10 62 0 480 -31 685 -50 474 -44 941 -94 1029 -110 79 -14 106
-10 41 6 -147 37 -449 94 -466 88 -12 -4 -15 -3 -7 3 8 6 -27 15 -95 27 -59
10 -138 25 -177 32 -38 8 -103 14 -142 14 -42 0 -73 4 -73 10 0 6 -19 10 -42
10 -24 0 -60 5 -81 11 -20 5 -49 12 -65 14 -15 2 -64 8 -108 14 -90 13 -136
16 -329 26 -71 4 -135 11 -141 16 -6 5 -13 7 -15 5 -4 -4 -103 7 -159 18 -33
6 -333 26 -550 35 -163 8 -898 10 -1090 4z"/>
</g>
</svg>
